<svg xmlns="http://www.w3.org/2000/svg" viewBox="0 0 287.34 99"><defs><style>.cls-1{fill:#fff;}.cls-2{fill:#74cdd9;}.cls-3{fill:#f1583e;}</style></defs><title>Asset 1</title><g id="Layer_2" data-name="Layer 2"><g id="Layer_1-2" data-name="Layer 1"><path class="cls-1" d="M0,35.24A23.53,23.53,0,0,1,2,25.6a24.76,24.76,0,0,1,5.45-7.8,25.26,25.26,0,0,1,8.18-5.21,27.46,27.46,0,0,1,10.24-1.88,27.41,27.41,0,0,1,8.66,1.22,34.39,34.39,0,0,1,6.08,2.63,24.81,24.81,0,0,1,4.82,3.84L37,31.34a18.83,18.83,0,0,0-2.73-1.72,16.31,16.31,0,0,0-2.9-1.24A10.72,10.72,0,0,0,28,27.83a8.77,8.77,0,0,0-6,2.07,6.8,6.8,0,0,0-2.34,5.34,6.8,6.8,0,0,0,2.34,5.34,8.77,8.77,0,0,0,6,2.07,11.91,11.91,0,0,0,3.46-.49A15.64,15.64,0,0,0,34.31,41,16.52,16.52,0,0,0,37,39.29l8.38,12.79a21.88,21.88,0,0,1-4.82,3.85,30.43,30.43,0,0,1-6.08,2.65,27.75,27.75,0,0,1-8.66,1.19,27.46,27.46,0,0,1-10.24-1.88,25.09,25.09,0,0,1-8.18-5.21A24.76,24.76,0,0,1,2,44.88,23.53,23.53,0,0,1,0,35.24Z"/><path class="cls-1" d="M155,10.78V26.16H136.83v5.59H151.5v14H136.83v14H118.66V10.78Z"/><path class="cls-1" d="M196.93,10.78V26.16H178.76v5.59h14.67v14H178.76v14H160.59V10.78Z"/><path class="cls-1" d="M220.68,45.72h21v14H202.52V10.78h37.73v14H220.68v3.49h18.17v14H220.68Z"/><path class="cls-1" d="M266.11,45.72h21v14H247.94V10.78h37.73v14H266.11v3.49h18.17v14H266.11Z"/><path class="cls-2" d="M104.41,10.32A32.54,32.54,0,0,0,61,6.63c-8.59,6.53-13.19,15.42-13.82,26.45A39.67,39.67,0,0,0,49,46.64a101.71,101.71,0,0,0,10.2,22.44A209.71,209.71,0,0,0,76.32,93.77C77.7,95.5,79.11,97.2,80.58,99l.91-1.08A212.25,212.25,0,0,0,103,67.23a101.43,101.43,0,0,0,8.66-19.06,43.08,43.08,0,0,0,2.4-13.69A34.6,34.6,0,0,0,104.41,10.32ZM80.6,61.18a24.77,24.77,0,1,1,24.77-24.76A24.77,24.77,0,0,1,80.6,61.18Z"/><path class="cls-3" d="M66.14,47.33a9.51,9.51,0,0,1-1.07-2.77,14.53,14.53,0,0,1,.69-8.33A24.2,24.2,0,0,1,80.12,21.68a14.71,14.71,0,0,1,8.3-.86,9.89,9.89,0,0,1,4.91,2.44.44.44,0,0,1,.12.57,18.75,18.75,0,0,1-5.57,7.7,27.23,27.23,0,0,1-8.62,4.71,24.82,24.82,0,0,0-9.69,5.95,16.18,16.18,0,0,0-3.3,4.88Z"/><path class="cls-3" d="M95,25.35a10,10,0,0,1,1.26,3.44,15.53,15.53,0,0,1-1.22,9A24.47,24.47,0,0,1,82,50.81a16.34,16.34,0,0,1-6.89,1.46A10.64,10.64,0,0,1,68,49.68a.78.78,0,0,1-.25-1,14.56,14.56,0,0,1,4.2-6,23.45,23.45,0,0,1,7.81-4.49,31.94,31.94,0,0,0,7.74-3.84,21.5,21.5,0,0,0,7.38-8.76Z"/><path class="cls-1" d="M118.66,66.25h18.89v3.53H122.83v11h12.48v3.53H122.83V99h-4.17Z"/><path class="cls-1" d="M147.1,66.25h4.17V99H147.1Z"/><path class="cls-1" d="M164,66.25h4.31l11.85,20.59,3.54,6.78h.2c-.21-3.3-.53-7-.53-10.42v-17h4V99H183L171.18,78.39l-3.54-6.76h-.2c.21,3.32.53,6.81.53,10.23V99h-4Z"/><path class="cls-1" d="M200.09,66.25h8.19c10.07,0,15.47,5.85,15.47,16.26S218.35,99,208.46,99h-8.37ZM208,95.58c7.65,0,11.47-4.79,11.47-13.07S215.62,69.67,208,69.67h-3.72V95.58Z"/><path class="cls-1" d="M234.56,66.25h18.88v3.53H238.73V80h12.41v3.53H238.73v11.9h15.21V99H234.56Z"/><path class="cls-1" d="M264.65,66.25h10.26c6.67,0,11.46,2.4,11.46,9.22,0,6.54-4.79,9.69-11.46,9.69h-6.09V99h-4.17Zm9.66,15.53c5.09,0,7.9-2.07,7.9-6.31s-2.81-5.84-7.9-5.84h-5.49V81.78ZM274.09,84l3.26-2.16,10,17.14h-4.72Z"/></g></g></svg>