<svg xmlns="http://www.w3.org/2000/svg" viewBox="0 0 42.17 42.17"><defs><style>.cls-1{fill:#75cdd7;}</style></defs><title>Asset 3</title><g id="Layer_2" data-name="Layer 2"><g id="Layer_1-2" data-name="Layer 1"><path class="cls-1" d="M38.09,38.56l-2.8,2.8a5.32,5.32,0,0,1-2,.81A33,33,0,0,1,0,8.8,5.26,5.26,0,0,1,.82,6.88l2.8-2.8A4.7,4.7,0,0,1,8,3.05l.59.2a5.5,5.5,0,0,1,3.19,3.38l1.41,5.16A5.07,5.07,0,0,1,12,16.21l-1.87,1.87A19.83,19.83,0,0,0,24.09,32L26,30.16A5.08,5.08,0,0,1,30.38,29l5.17,1.42a5.49,5.49,0,0,1,3.37,3.19l.2.59A4.68,4.68,0,0,1,38.09,38.56ZM23.72,21.08h2.63a5.27,5.27,0,0,0-5.27-5.27v2.64A2.64,2.64,0,0,1,23.72,21.08Zm10.54,0A13.17,13.17,0,0,0,21.08,7.91v2.63A10.55,10.55,0,0,1,31.62,21.08ZM21.08,0V2.64A18.47,18.47,0,0,1,39.53,21.08h2.64A21.08,21.08,0,0,0,21.08,0Z"/></g></g></svg>