<svg xmlns="http://www.w3.org/2000/svg" viewBox="0 0 336.42 53.53"><defs><style>.cls-1{fill:#fff;opacity:0.9;}.cls-2{fill:#f0593f;}.cls-3{fill:#f15a40;}</style></defs><title>Asset 10</title><g id="Layer_2" data-name="Layer 2"><g id="Layer_1-2" data-name="Layer 1"><polygon class="cls-1" points="308.3 0 316.99 17.61 336.42 20.43 322.36 34.13 325.68 53.48 308.3 44.35 290.92 53.48 294.24 34.13 280.18 20.43 299.61 17.61 308.3 0"/><polygon class="cls-2" points="28.12 0.05 36.81 17.65 56.23 20.48 42.18 34.18 45.49 53.53 28.12 44.39 10.74 53.53 14.06 34.18 0 20.48 19.43 17.65 28.12 0.05"/><polygon class="cls-2" points="100.27 0.05 108.96 17.65 128.39 20.48 114.33 34.18 117.65 53.53 100.27 44.39 82.89 53.53 86.21 34.18 72.15 20.48 91.58 17.65 100.27 0.05"/><polygon class="cls-2" points="171.49 0.05 180.18 17.65 199.6 20.48 185.55 34.18 188.87 53.53 171.49 44.39 154.11 53.53 157.43 34.18 143.37 20.48 162.8 17.65 171.49 0.05"/><polygon class="cls-1" points="240.83 0.05 249.52 17.65 268.95 20.48 254.89 34.18 258.21 53.53 240.83 44.39 223.45 53.53 226.77 34.18 212.71 20.48 232.14 17.65 240.83 0.05"/><polygon class="cls-3" points="240.83 44.39 240.83 0.05 232.14 17.65 212.71 20.48 226.77 34.18 223.45 53.53 240.83 44.39"/></g></g></svg>