<svg xmlns="http://www.w3.org/2000/svg" viewBox="0 0 336.42 53.48"><defs><style>.cls-1{fill:#f0593f;}.cls-2{fill:#fff;opacity:0.9;}</style></defs><title>Asset 9</title><g id="Layer_2" data-name="Layer 2"><g id="Layer_1-2" data-name="Layer 1"><polygon class="cls-1" points="28.12 0 36.81 17.61 56.23 20.43 42.18 34.13 45.49 53.48 28.12 44.35 10.74 53.48 14.06 34.13 0 20.43 19.43 17.61 28.12 0"/><polygon class="cls-1" points="100.27 0 108.96 17.61 128.39 20.43 114.33 34.13 117.65 53.48 100.27 44.35 82.89 53.48 86.21 34.13 72.15 20.43 91.58 17.61 100.27 0"/><polygon class="cls-1" points="171.49 0 180.18 17.61 199.6 20.43 185.55 34.13 188.87 53.48 171.49 44.35 154.11 53.48 157.43 34.13 143.37 20.43 162.8 17.61 171.49 0"/><polygon class="cls-1" points="240.83 0 249.52 17.61 268.95 20.43 254.89 34.13 258.21 53.48 240.83 44.35 223.45 53.48 226.77 34.13 212.71 20.43 232.14 17.61 240.83 0"/><polygon class="cls-2" points="308.3 0 316.99 17.61 336.42 20.43 322.36 34.13 325.68 53.48 308.3 44.35 290.92 53.48 294.24 34.13 280.18 20.43 299.61 17.61 308.3 0"/></g></g></svg>