<svg xmlns="http://www.w3.org/2000/svg" viewBox="0 0 42.17 42.17"><defs><style>.cls-1{fill:#75cdd7;}</style></defs><title>Asset 5</title><g id="Layer_2" data-name="Layer 2"><g id="Layer_1-2" data-name="Layer 1"><path class="cls-1" d="M21.08,0A21.09,21.09,0,1,0,42.17,21.08,21.08,21.08,0,0,0,21.08,0ZM36,12.41H32.6a22.13,22.13,0,0,0-3.32-6.53A17.38,17.38,0,0,1,36,12.41Zm2.37,8.67A17.1,17.1,0,0,1,37.67,26H33.54a29.84,29.84,0,0,0,0-9.8h4.13A17.48,17.48,0,0,1,38.38,21.08Zm-34.59,0A17.2,17.2,0,0,1,4.5,16.2H8.62a30.46,30.46,0,0,0,0,9.81H4.5A17.49,17.49,0,0,1,3.79,21.08Zm8.24,0a26.73,26.73,0,0,1,.48-4.88h6.68V26H12.51A26.55,26.55,0,0,1,12,21.08ZM23,4.93a16.42,16.42,0,0,1,5.59,7.48H23Zm-3.79,0v7.48H13.6A16.42,16.42,0,0,1,19.19,4.93Zm0,24.82v7.49a16.39,16.39,0,0,1-5.59-7.49ZM23,37.24V29.75h5.59A16.39,16.39,0,0,1,23,37.24ZM23,26V16.2h6.68a26.1,26.1,0,0,1,0,9.81ZM12.89,5.88a21.89,21.89,0,0,0-3.32,6.53H6.16A17.38,17.38,0,0,1,12.89,5.88ZM6.16,29.75H9.57a22.06,22.06,0,0,0,3.32,6.54A17.34,17.34,0,0,1,6.16,29.75Zm23.12,6.54a22.3,22.3,0,0,0,3.32-6.54H36A17.34,17.34,0,0,1,29.28,36.29Z"/></g></g></svg>